<svg class="brandLogoMint" viewBox="0 0 48 16" fill="none" xmlns="http://www.w3.org/2000/svg"><path class="svg_text" d="M27.3786 7.03997C26.4452 7.03997 25.6897 7.52886 25.2452 8.28442C24.8897 7.7511 24.223 7.03997 23.1119 7.03997C22.1786 7.03997 21.3786 7.7511 21.023 8.28442H20.9786V7.2622H19.1562V14.1511H21.0675V10.3733C21.0675 9.52886 21.5119 8.68442 22.4452 8.68442C23.4675 8.68442 23.6008 9.61775 23.6008 10.0178V14.1511H25.5119V10.4177C25.5119 9.57331 26.0008 8.72886 26.9341 8.72886C27.823 8.72886 28.0897 9.52886 28.0897 10.3733V14.1511H30.0008V9.88442C29.9119 8.55109 29.2452 7.03997 27.3786 7.03997ZM31.6897 14.1066H33.6008V7.21775H31.6897V14.1066ZM39.1563 7.03997C38.1787 7.03997 37.423 7.7511 37.0676 8.28442H37.023V7.2622H35.2008V14.1511H37.1119V10.3733C37.1119 9.57331 37.6008 8.68442 38.5787 8.68442C39.5119 8.68442 39.7341 9.52886 39.7341 10.3289V14.1066H41.6452V9.83999C41.6452 8.55109 41.023 7.03997 39.1563 7.03997ZM47.3342 8.72886V7.21775H45.6898V5.30664H43.8231V7.21775H42.6676V8.72886H43.8231V11.7511C43.8231 12.8177 44.0898 14.24 46.1341 14.24C46.5341 14.24 47.0231 14.1511 47.3342 14.0622L47.2898 12.5955C47.112 12.64 46.8009 12.7289 46.4452 12.7289C45.912 12.7289 45.6898 12.3289 45.6898 11.7511V8.72886H47.3342Z" fill="#241C15"/><path class="svg_circle" d="M8.00002 16C12.4 16 16 12.4 16 8C16 3.6 12.4 0 8.00002 0C3.60001 0 0 3.6 0 8C0 12.4 3.60001 16 8.00002 16Z" fill="#241C15"/><path class="svg_logo" d="M8.00055 2.22217C7.46722 2.7555 3.86719 6.48882 3.86719 9.37771C3.86719 11.4221 5.51165 12.1333 8.00055 13.8221C10.4894 12.1333 12.1339 11.4221 12.1339 9.37771C12.1339 6.44439 8.53387 2.7555 8.00055 2.22217ZM7.91165 12.3555C7.77831 12.2666 7.64498 12.1777 7.51165 12.0888C5.51165 10.7999 5.02275 10.3555 5.02275 9.33328C5.02275 7.73328 6.5783 5.51104 7.91165 3.99993V12.3555Z" fill="white"/></svg>